<mxfile host="app.diagrams.net" modified="2024-06-17T08:00:53.438Z" agent="Mozilla/5.0 (Macintosh; Intel Mac OS X 10_15_7) AppleWebKit/537.36 (KHTML, like Gecko) Chrome/125.0.0.0 Safari/537.36" etag="uZlBGBJhVZwtAYmygit2" version="24.4.0" type="device">
  <diagram name="Page-1" id="QJE1guS3ePGycjtbNG2y">
    <mxGraphModel dx="954" dy="640" grid="1" gridSize="10" guides="1" tooltips="1" connect="1" arrows="1" fold="1" page="1" pageScale="1" pageWidth="827" pageHeight="1169" math="0" shadow="0">
      <root>
        <mxCell id="0" />
        <mxCell id="1" parent="0" />
        <mxCell id="K-_sYwtO5Q6kl31vPl8u-1" value="depart" style="swimlane;whiteSpace=wrap;html=1;" vertex="1" parent="1">
          <mxGeometry x="80" y="140" width="200" height="200" as="geometry" />
        </mxCell>
        <mxCell id="K-_sYwtO5Q6kl31vPl8u-2" value="list" style="swimlane;whiteSpace=wrap;html=1;" vertex="1" parent="1">
          <mxGeometry x="310" y="140" width="200" height="200" as="geometry" />
        </mxCell>
        <mxCell id="K-_sYwtO5Q6kl31vPl8u-7" value="&lt;pre style=&quot;&quot;&gt;label&lt;/pre&gt;" style="text;html=1;align=left;verticalAlign=middle;resizable=0;points=[];autosize=1;strokeColor=none;fillColor=none;" vertex="1" parent="K-_sYwtO5Q6kl31vPl8u-2">
          <mxGeometry x="40" y="100" width="60" height="50" as="geometry" />
        </mxCell>
        <mxCell id="K-_sYwtO5Q6kl31vPl8u-6" value="&lt;pre style=&quot;&quot;&gt;departement&lt;/pre&gt;" style="text;html=1;align=left;verticalAlign=middle;resizable=0;points=[];autosize=1;strokeColor=none;fillColor=none;" vertex="1" parent="K-_sYwtO5Q6kl31vPl8u-2">
          <mxGeometry x="40" y="20" width="100" height="50" as="geometry" />
        </mxCell>
        <mxCell id="K-_sYwtO5Q6kl31vPl8u-8" value="&lt;pre style=&quot;&quot;&gt;photo&lt;/pre&gt;" style="text;html=1;align=left;verticalAlign=middle;resizable=0;points=[];autosize=1;strokeColor=none;fillColor=none;" vertex="1" parent="K-_sYwtO5Q6kl31vPl8u-2">
          <mxGeometry x="40" y="60" width="60" height="50" as="geometry" />
        </mxCell>
        <mxCell id="K-_sYwtO5Q6kl31vPl8u-3" value="site" style="swimlane;whiteSpace=wrap;html=1;" vertex="1" parent="1">
          <mxGeometry x="540" y="140" width="200" height="320" as="geometry" />
        </mxCell>
        <mxCell id="K-_sYwtO5Q6kl31vPl8u-10" value="&lt;pre style=&quot;text-align: start;&quot;&gt;photo&lt;/pre&gt;" style="text;html=1;align=center;verticalAlign=middle;resizable=0;points=[];autosize=1;strokeColor=none;fillColor=none;" vertex="1" parent="K-_sYwtO5Q6kl31vPl8u-3">
          <mxGeometry x="10" y="50" width="60" height="50" as="geometry" />
        </mxCell>
        <mxCell id="K-_sYwtO5Q6kl31vPl8u-9" value="&lt;pre style=&quot;&quot;&gt;site&lt;/pre&gt;" style="text;html=1;align=left;verticalAlign=middle;resizable=0;points=[];autosize=1;strokeColor=none;fillColor=none;" vertex="1" parent="K-_sYwtO5Q6kl31vPl8u-3">
          <mxGeometry x="20" y="28" width="50" height="50" as="geometry" />
        </mxCell>
        <mxCell id="K-_sYwtO5Q6kl31vPl8u-11" value="&lt;pre style=&quot;text-align: start;&quot;&gt;commentaires&lt;/pre&gt;" style="text;html=1;align=center;verticalAlign=middle;resizable=0;points=[];autosize=1;strokeColor=none;fillColor=none;" vertex="1" parent="K-_sYwtO5Q6kl31vPl8u-3">
          <mxGeometry x="10" y="75" width="110" height="50" as="geometry" />
        </mxCell>
        <mxCell id="K-_sYwtO5Q6kl31vPl8u-12" value="&lt;pre style=&quot;text-align: start;&quot;&gt;rue&lt;/pre&gt;" style="text;html=1;align=center;verticalAlign=middle;resizable=0;points=[];autosize=1;strokeColor=none;fillColor=none;" vertex="1" parent="K-_sYwtO5Q6kl31vPl8u-3">
          <mxGeometry x="10" y="100" width="50" height="50" as="geometry" />
        </mxCell>
        <mxCell id="K-_sYwtO5Q6kl31vPl8u-13" value="&lt;pre style=&quot;text-align: start;&quot;&gt;cp&lt;/pre&gt;" style="text;html=1;align=center;verticalAlign=middle;resizable=0;points=[];autosize=1;strokeColor=none;fillColor=none;" vertex="1" parent="K-_sYwtO5Q6kl31vPl8u-3">
          <mxGeometry x="10" y="120" width="40" height="50" as="geometry" />
        </mxCell>
        <mxCell id="K-_sYwtO5Q6kl31vPl8u-14" value="&lt;pre style=&quot;text-align: start;&quot;&gt;ville&lt;/pre&gt;" style="text;html=1;align=center;verticalAlign=middle;resizable=0;points=[];autosize=1;strokeColor=none;fillColor=none;" vertex="1" parent="K-_sYwtO5Q6kl31vPl8u-3">
          <mxGeometry x="10" y="140" width="60" height="50" as="geometry" />
        </mxCell>
        <mxCell id="K-_sYwtO5Q6kl31vPl8u-15" value="&lt;pre style=&quot;text-align: start;&quot;&gt;departement&lt;/pre&gt;" style="text;html=1;align=center;verticalAlign=middle;resizable=0;points=[];autosize=1;strokeColor=none;fillColor=none;" vertex="1" parent="K-_sYwtO5Q6kl31vPl8u-3">
          <mxGeometry x="10" y="160" width="100" height="50" as="geometry" />
        </mxCell>
        <mxCell id="K-_sYwtO5Q6kl31vPl8u-16" value="&lt;pre style=&quot;text-align: start;&quot;&gt;latitude&lt;/pre&gt;" style="text;html=1;align=center;verticalAlign=middle;resizable=0;points=[];autosize=1;strokeColor=none;fillColor=none;" vertex="1" parent="K-_sYwtO5Q6kl31vPl8u-3">
          <mxGeometry x="10" y="180" width="80" height="50" as="geometry" />
        </mxCell>
        <mxCell id="K-_sYwtO5Q6kl31vPl8u-17" value="&lt;pre style=&quot;text-align: start;&quot;&gt;longitude&lt;/pre&gt;" style="text;html=1;align=center;verticalAlign=middle;resizable=0;points=[];autosize=1;strokeColor=none;fillColor=none;" vertex="1" parent="K-_sYwtO5Q6kl31vPl8u-3">
          <mxGeometry x="10" y="200" width="90" height="50" as="geometry" />
        </mxCell>
        <mxCell id="K-_sYwtO5Q6kl31vPl8u-4" value="&lt;pre style=&quot;&quot;&gt;image&lt;/pre&gt;" style="text;html=1;align=left;verticalAlign=middle;resizable=0;points=[];autosize=1;strokeColor=none;fillColor=none;" vertex="1" parent="1">
          <mxGeometry x="110" y="168" width="60" height="50" as="geometry" />
        </mxCell>
        <mxCell id="K-_sYwtO5Q6kl31vPl8u-5" value="&lt;pre style=&quot;&quot;&gt;departement&lt;/pre&gt;" style="text;html=1;align=left;verticalAlign=middle;resizable=0;points=[];autosize=1;strokeColor=none;fillColor=none;" vertex="1" parent="1">
          <mxGeometry x="100" y="218" width="100" height="50" as="geometry" />
        </mxCell>
      </root>
    </mxGraphModel>
  </diagram>
</mxfile>
